<svg id="Layer_1" data-name="Layer 1" xmlns="http://www.w3.org/2000/svg" viewBox="0 0 446.7 472.08"><path d="M239.9,255.71c0-33.94,32.73-81.22,129.1-99.4,0,0-7.27-7.88-56.37-12.73,0,0-15.6-21.67-37.88-21.67s-69.09,6.82-83.64-1.36c0,0,3.18,13.64,11.82,17.27s-27.28-.45-37.73-12.73,8.18,32.28,32.73,38.64-77,44.45-101.37,49.1c-6.37,1.36,9.54,14.54,45,16.36s-24.09-.45-23.18,81.82c-.46,29.1,4.54-23.18,30.45-26.82C172.06,280.94,146,413.53,65,437.13c157.33-23.85,226.39-130.51,226.39-130.51C274.45,306,239.9,289.65,239.9,255.71Z" style="fill:#fff"/><path d="M65,437.13q-14.64,2.22-30.29,3.44A90.76,90.76,0,0,0,65,437.13Z" style="fill:#ee335f"/><path d="M289.6,17.81h-184L34.74,440.57q15.66-1.2,30.29-3.44c80.95-23.6,107-156.19,83.8-152.94-25.91,3.64-30.91,55.92-30.45,26.82-.91-82.27,58.64-80,23.18-81.82s-51.37-15-45-16.36c24.4-4.65,125.92-42.73,101.37-49.1s-43.19-50.91-32.73-38.64,46.37,16.37,37.73,12.73-11.82-17.27-11.82-17.27c14.55,8.18,61.37,1.36,83.64,1.36s37.88,21.67,37.88,21.67c49.1,4.85,56.37,12.73,56.37,12.73-96.37,18.18-129.1,65.46-129.1,99.4s34.55,50.3,51.52,50.91S413.85,266,413.85,156.31C413.85,23.57,289.6,17.81,289.6,17.81Z" style="fill:#ee335f"/></svg>