<svg width="14" height="18" viewBox="0 0 14 18" fill="none" xmlns="http://www.w3.org/2000/svg">
    <path
        d="M3.79395 2.85851V11.8943C3.79395 12.2937 3.95261 12.6768 4.23503 12.9592C4.51746 13.2416 4.90051 13.4003 5.29991 13.4003H11.3238C11.7232 13.4003 12.1062 13.2416 12.3887 12.9592C12.6711 12.6768 12.8298 12.2937 12.8298 11.8943V5.29968C12.8297 5.09906 12.7896 4.90046 12.7118 4.71555C12.6339 4.53064 12.5199 4.36315 12.3765 4.22292L9.88032 1.78174C9.59897 1.50664 9.22113 1.35259 8.82765 1.35254H5.29991C4.90051 1.35254 4.51746 1.5112 4.23503 1.79363C3.95261 2.07605 3.79395 2.4591 3.79395 2.85851V2.85851Z"
        stroke="#009ef7" stroke-width="1.50597" stroke-linecap="round" stroke-linejoin="round" />
    <path
        d="M9.81804 13.4005V14.9065C9.81804 15.3059 9.65937 15.6889 9.37695 15.9714C9.09453 16.2538 8.71148 16.4124 8.31207 16.4124H2.2882C1.88879 16.4124 1.50574 16.2538 1.22331 15.9714C0.940891 15.6889 0.782227 15.3059 0.782227 14.9065V6.62364C0.782227 6.22424 0.940891 5.84119 1.22331 5.55876C1.50574 5.27634 1.88879 5.11768 2.2882 5.11768H3.79416"
        stroke="#009ef7" stroke-width="1.50597" stroke-linecap="round" stroke-linejoin="round" />
</svg>