<svg width="26" height="27" viewBox="0 0 26 27" fill="none" xmlns="http://www.w3.org/2000/svg">
    <path
        d="M1.95663 17.3129V19.1536H6.17728L0.115967 25.2149L1.41732 26.5162L7.47862 20.4549V24.6756H9.31929V17.3129H1.95663ZM20.3633 18.2333H22.2039V22.8349H20.3633V18.2333ZM16.6819 13.6316H18.5226V22.8349H16.6819V13.6316ZM13.0006 15.4723H14.8413V22.8349H13.0006V15.4723Z"
        fill="currentcolor" />
    <path
        d="M24.0446 0.74707H1.95663C1.46861 0.747558 1.00071 0.941641 0.655623 1.28673C0.310537 1.63181 0.116454 2.09971 0.115967 2.58773V13.6317H1.95663V10.8707H24.0455L24.0464 24.6757H13.0006V26.5164H24.0446C24.5326 26.5156 25.0003 26.3215 25.3453 25.9764C25.6904 25.6314 25.8845 25.1637 25.8853 24.6757V2.58773C25.8848 2.09971 25.6907 1.63181 25.3456 1.28673C25.0005 0.941641 24.5326 0.747558 24.0446 0.74707Z"
        fill="currentcolor" />
</svg>
    