<svg width="21" height="22" viewBox="0 0 21 22" fill="none" xmlns="http://www.w3.org/2000/svg">
    <path
        d="M18.7261 10.11V4C18.7261 3.46957 18.5154 2.96086 18.1403 2.58579C17.7652 2.21071 17.2565 2 16.7261 2H12.5461C12.1261 0.84 11.0261 0 9.72607 0C8.42607 0 7.32607 0.84 6.90607 2H2.72607C1.62607 2 0.726074 2.9 0.726074 4V18C0.726074 18.5304 0.936788 19.0391 1.31186 19.4142C1.68693 19.7893 2.19564 20 2.72607 20H8.83607C10.0961 21.24 11.8161 22 13.7261 22C17.5961 22 20.7261 18.87 20.7261 15C20.7261 13.09 19.9661 11.37 18.7261 10.11ZM9.72607 2C10.2761 2 10.7261 2.45 10.7261 3C10.7261 3.55 10.2761 4 9.72607 4C9.17607 4 8.72607 3.55 8.72607 3C8.72607 2.45 9.17607 2 9.72607 2ZM2.72607 18V4H4.72607V6H14.7261V4H16.7261V8.68C15.8161 8.25 14.8061 8 13.7261 8H4.72607V10H8.82607C8.22607 10.57 7.76607 11.25 7.40607 12H4.72607V14H6.80607C6.75607 14.33 6.72607 14.66 6.72607 15C6.72607 16.08 6.97607 17.09 7.40607 18H2.72607ZM13.7261 20C10.9661 20 8.72607 17.76 8.72607 15C8.72607 12.24 10.9661 10 13.7261 10C16.4861 10 18.7261 12.24 18.7261 15C18.7261 17.76 16.4861 20 13.7261 20ZM14.2261 15.25L17.0861 16.94L16.3361 18.16L12.7261 16V11H14.2261V15.25Z"
        fill="currentcolor" />
</svg>
    