<svg width="25" height="16" viewBox="0 0 25 16" fill="none" xmlns="http://www.w3.org/2000/svg">
    <path
        d="M7.72607 0C5.52607 0 3.72607 1.8 3.72607 4C3.72607 6.2 5.52607 8 7.72607 8C9.92607 8 11.7261 6.2 11.7261 4C11.7261 1.8 9.92607 0 7.72607 0ZM7.72607 6C6.62607 6 5.72607 5.1 5.72607 4C5.72607 2.9 6.62607 2 7.72607 2C8.82607 2 9.72607 2.9 9.72607 4C9.72607 5.1 8.82607 6 7.72607 6ZM7.72607 10C3.82607 10 0.726074 11.8 0.726074 14V16H11.7261V14H2.72607C2.72607 13.4 4.52607 12 7.72607 12C9.52607 12 10.9261 12.5 11.7261 13V10.8C10.6261 10.3 9.22607 10 7.72607 10ZM22.7261 0H15.7261C14.6261 0 13.7261 0.9 13.7261 2V14C13.7261 15.1 14.6261 16 15.7261 16H22.7261C23.8261 16 24.7261 15.1 24.7261 14V2C24.7261 0.9 23.8261 0 22.7261 0ZM16.7261 14H15.7261V2H16.7261V14ZM22.7261 14H18.7261V2H22.7261V14Z"
        fill="currentcolor" />
</svg>
    